<svg xmlns="http://www.w3.org/2000/svg" width="150" height="150" fill="none" viewBox="0 0 150 150">
  <path fill="url(#a)" d="M59.063 91.992a88.008 88.008 0 0 0-33.399 8.086l28.36-76.992c.82-2.344 2.226-3.75 3.984-3.75h33.984c1.758 0 3.164 1.406 3.985 3.75l28.359 76.992s-13.594-8.203-33.398-8.203L78.516 53.32c-.47-1.992-1.875-3.28-3.399-3.28-1.523 0-2.93 1.288-3.398 3.163l-12.656 38.79Zm-6.211 9.375c-2.344 7.735-.704 18.516 4.921 23.672.073-.275.151-.548.235-.82a6.443 6.443 0 0 1 6.68-5.274c3.28.117 5.039 1.758 5.507 5.508.235 1.289.235 2.695.235 4.102v.468c0 3.164.82 6.094 2.578 8.672a15.231 15.231 0 0 0 6.68 5.742v-.351l-.235-.352c-2.11-6.562-.586-11.132 5.156-15l1.758-1.172a84.273 84.273 0 0 0 3.75-2.578 18.736 18.736 0 0 0 7.969-13.359c.352-2.344.117-4.688-.703-7.031l-.938.703-1.875 1.172a43.358 43.358 0 0 1-26.25 3.164c-5.86-.821-11.367-2.344-15.468-7.266Z"/>
  <defs>
    <radialGradient id="a" cx="0" cy="0" r="1" gradientTransform="matrix(0 107 -85.0746 0 75 19)" gradientUnits="userSpaceOnUse">
      <stop stop-color="#CBA6F7"/>
      <stop offset="1" stop-color="#F2CDCD"/>
    </radialGradient>
  </defs>
</svg>
